<?xml version="1.0" encoding="UTF-8"?><svg id="Calque_1" xmlns="http://www.w3.org/2000/svg" viewBox="0 0 191.4 160.3"><defs><style>.cls-1{fill:#984f52;}</style></defs><path class="cls-1" d="m.62,104.85c.61-5.08,1.73-10.03,3.78-14.72,5.05-11.54,13.24-20.18,24.42-25.99,2.51-1.3,3.22-1.22,5.29.74,2.37,2.24,4.95,4.18,7.92,5.53,6.99,3.16,14,3.27,20.99-.04,1.85-.88,3.32-.47,4.17,1.08.86,1.56.39,3.14-1.28,4-2.64,1.36-5.43,2.3-8.36,2.82-9.62,1.72-17.9-1.3-25.33-7.25-1.58-1.26-1.59-1.32-3.29-.27-13,7.98-20.64,19.47-22.62,34.65-.15,1.14-.29,2.29-.31,3.44,0,.41.25.96.56,1.23,5.12,4.41,10.77,8,16.95,10.76.37.16.73.35,1.07.56,1.58.96,2.07,2.46,1.31,3.96-.71,1.39-2.37,1.97-3.94,1.21-2.61-1.25-5.21-2.51-7.73-3.92-4.44-2.48-8.52-5.49-12.34-8.85-.7-.62-1.27-1.4-1.9-2.1,0-1.99.58-6.49.62-6.84Z"/><path class="cls-1" d="m97.08,160.3c-23.76-.4-43.31-7.76-60.09-22.39-1.14-1-1.69-2.12-1.65-3.65.25-9.93,2.64-19.3,7.44-28.01,5.28-9.59,12.63-17.2,22.02-22.83,1.41-.85,2.9-1.56,4.32-2.38,1.6-.92,2.98-.64,4.34.56,1.78,1.56,3.55,3.14,5.47,4.5,5.95,4.19,12.6,5.97,19.84,5.23,5.85-.6,10.96-3.06,15.55-6.67,1.08-.84,2.1-1.76,3.1-2.69,1.93-1.78,2.71-1.94,5.07-.73,14.27,7.33,24.22,18.52,29.81,33.56,2.29,6.17,3.32,12.59,3.61,19.16.07,1.75-.5,3.02-1.81,4.15-6.37,5.49-13.3,10.13-20.92,13.72-8.24,3.88-16.88,6.45-25.91,7.62-3.88.5-7.8.68-10.19.87Zm-1.18-6.02c4.93-.07,9.98-.43,14.98-1.38,13.79-2.64,26.13-8.38,37.05-17.23,1.5-1.22,2.11-2.35,1.94-4.35-.68-8.09-2.83-15.69-6.81-22.76-5.07-9-12.14-16-21.15-21.06-.85-.48-1.33-.42-2.09.16-2.4,1.81-4.78,3.71-7.39,5.2-7.31,4.16-15.15,5.63-23.46,3.89-6.57-1.37-12.26-4.54-17.33-8.86q-1.16-.99-2.5-.24c-7.84,4.37-14.2,10.34-19.1,17.86-5.46,8.38-8.29,17.6-8.72,27.57-.02.46.3,1.08.67,1.39,15.5,13.17,33.47,19.67,53.92,19.84Z"/><path class="cls-1" d="m60.9,43.05c.07-14.73,9.41-27.86,23.27-32.81,18.62-6.64,39.1,3.93,44.7,23.05,2.1,7.17,1.65,14.33-.37,21.44-2.56,9.02-6.95,17.02-13.62,23.66-4,3.99-8.61,7.02-14.23,8.3-6.17,1.41-11.93.26-17.31-2.9-6.65-3.91-11.41-9.64-15.21-16.22-3.28-5.67-5.55-11.73-6.57-18.22-.33-2.08-.45-4.2-.67-6.3Zm63.46-.07c-.13-1.67-.14-3.37-.42-5.01-2.8-16.09-18.47-26.7-34.69-23.1-13.63,3.03-24.7,16.34-21.93,33.3,1.33,8.13,4.54,15.46,9.56,22,3.05,3.97,6.66,7.31,11.25,9.45,4.05,1.89,8.23,2.23,12.53.95,2.75-.82,5.19-2.23,7.43-3.99,5.52-4.37,9.37-10,12.2-16.37,2.44-5.47,4.03-11.16,4.07-17.22Z"/><path class="cls-1" d="m191.4,110.4c-.02,1.45-.79,2.43-1.78,3.3-5.9,5.15-12.35,9.44-19.53,12.58-2.93,1.28-5.96,2.31-8.97,3.4-1.09.39-2.1.09-2.85-.83-.76-.93-1.02-1.98-.57-3.14.37-.96,1.2-1.38,2.1-1.71,2.18-.8,4.4-1.52,6.55-2.43,6.73-2.83,12.85-6.66,18.39-11.4.36-.31.53-1.04.5-1.56-.35-5.95-1.65-11.68-4.18-17.1-4.31-9.27-10.98-16.35-19.85-21.39-.53-.3-.84-.26-1.29.12-3.57,3-7.44,5.5-11.91,6.98-7.78,2.58-15.31,1.9-22.63-1.68-1.64-.8-2.18-2.27-1.48-3.8.72-1.57,2.25-2.25,3.88-1.49,3.26,1.53,6.68,2.34,10.25,2.52,5.96.29,11.16-1.77,15.87-5.24,1.25-.92,2.4-1.98,3.56-3.01,1.57-1.41,2.58-1.6,4.47-.62,15.3,7.96,24.8,20.37,28.3,37.26.63,3.03.81,6.15,1.19,9.23Z"/><path class="cls-1" d="m163.01,30.44c.19-5.69-1.42-10.86-5.13-15.17-3.08-3.57-6.63-6.69-11.34-8.04-8.94-2.56-17.09-1.22-24.2,5.08-1,.89-2.04,1.78-3.57,1.01-2.1-1.05-2.53-3.25-.85-4.88,2.46-2.37,5.27-4.23,8.38-5.67,14.02-6.47,30.82-1.2,38.77,12.59,3.54,6.14,4.69,12.79,3.61,19.79-1.57,10.21-5.93,19.05-13.28,26.33-3.88,3.85-8.46,6.51-13.96,7.34-4.31.65-8.35-.28-12.17-2.23-1.55-.79-1.91-2.26-1.16-3.82.69-1.44,2.13-2.05,3.67-1.39,2.58,1.11,5.25,1.76,8.06,1.6,4.06-.24,7.48-2.06,10.42-4.72,7.39-6.69,11.41-15.15,12.74-24.94.13-.95.02-1.93.02-2.89Z"/><path class="cls-1" d="m28.05,31.12c.69,10.2,4.76,19.52,12.79,27.02,3.23,3.02,7.11,4.64,11.52,4.9,2.55.15,4.89-.67,7.19-1.67,1.26-.55,2.39-.2,3.24.86.85,1.08,1.03,2.51.24,3.44-.48.57-1.17,1.03-1.86,1.34-6.62,3.01-13.1,2.59-19.38-1-5.33-3.05-9.24-7.5-12.45-12.63-3.57-5.71-5.94-11.88-6.86-18.57-1.77-12.99,4.39-24.54,14.65-30.52,11.75-6.85,25.35-5.4,35.59,3.56.88.77,1.69,1.58,1.63,2.89-.1,2.16-2.34,3.48-4.23,2.45-.54-.29-1.02-.71-1.49-1.12-2.51-2.21-5.39-3.84-8.54-4.85-6.57-2.11-13.08-1.79-19.14,1.63-8.32,4.7-12.69,11.91-12.91,22.26Z"/><path class="cls-1" d="m30.95,123.83c1.54.02,2.82,1.33,2.82,2.9,0,1.57-1.36,2.91-2.93,2.9-1.54-.01-2.88-1.4-2.86-2.96.02-1.59,1.34-2.85,2.97-2.83Z"/></svg>