<?xml version="1.0" encoding="UTF-8"?><svg id="Calque_1" xmlns="http://www.w3.org/2000/svg" viewBox="0 0 185.23 191.26"><defs><style>.cls-1{fill:#984e52;}</style></defs><path class="cls-1" d="m104.37,0c.29.18.58.51.88.52,8.72.53,16.64,3.41,23.88,8.19,6.38,4.22,11.39,9.68,14.07,16.95,4.06,10.99,1.71,20.9-5.54,29.82-3.41,4.18-7.7,7.3-12.4,9.89-.32.17-.64.62-.68.97-.48,4.14-.89,8.29-1.35,12.43-.14,1.24-.26,2.5-1.51,3.24-.97.57-1.95.64-2.89-.02-.5-.36-.97-.78-1.4-1.23-2.91-3.03-5.83-6.05-8.71-9.11-.51-.54-1.01-.72-1.73-.61-5.31.8-10.6.63-15.9-.13-.59-.09-1.32.05-1.85.34-7,3.79-14.45,5.21-22.34,4.3-.67-.08-1.12.11-1.56.58-1.84,1.95-3.69,3.88-5.56,5.8-.71.74-1.54,1.28-2.65,1.07-1.36-.25-2.25-1.23-2.43-2.7-.32-2.62-.65-5.25-.89-7.88-.06-.7-.36-1.05-.9-1.37-3.3-1.89-6.19-4.28-8.49-7.33-6.34-8.4-5.71-18.99,1.58-26.85,2.22-2.39,4.79-4.33,7.64-5.91.48-.26.98-.83,1.11-1.34,2.08-8.56,7.13-15.02,14.13-20.08,6.95-5.02,14.78-7.83,23.25-8.91.49-.06,1.01.02,1.49-.08.25-.05.45-.34.67-.53,3.36,0,6.72,0,10.09,0Zm13.75,73.23c.35-3.15.72-6.01.95-8.88.14-1.69.96-2.74,2.44-3.44,4.62-2.19,8.64-5.2,11.89-9.14,6.33-7.69,7.93-16.24,3.99-25.52-2.54-5.99-7.08-10.31-12.54-13.68-5.67-3.49-11.85-5.44-18.46-6.29-6.85-.88-13.6-.54-20.24,1.24-7.92,2.12-14.93,5.88-20.28,12.24-5.8,6.89-7.71,14.73-4.96,23.43,1.85,5.84,5.66,10.32,10.51,13.92,7.77,5.77,16.63,8.4,26.22,8.61,3.34.07,6.7-.22,10.04-.52,1.67-.15,2.94.21,4.07,1.47,1.7,1.9,3.5,3.71,5.26,5.56.29.3.62.58,1.1,1.02Zm-58.38.65c1-1.05,1.89-1.91,2.69-2.85,1.01-1.19,2.23-1.56,3.75-1.32,3.53.57,7.06.54,10.58-.07,1.38-.24,2.73-.63,4.1-.95,0-.1,0-.21,0-.31-.29-.14-.57-.3-.88-.41-4.78-1.71-9.15-4.18-13.08-7.39-6.2-5.06-10.62-11.29-12.29-19.24-.26-1.26-.4-2.55-.62-3.97-.34.19-.63.29-.85.47-.99.85-2.02,1.66-2.91,2.61-5.78,6.18-6.01,14.29-.61,20.77,2.07,2.48,4.66,4.28,7.51,5.72,1.24.62,1.98,1.54,2.11,2.95.11,1.25.3,2.5.49,3.96Z"/><path class="cls-1" d="m93.91,0c-.04.07-.09.14-.13.2-.02-.07-.04-.14-.05-.2.06,0,.12,0,.19,0Z"/><path class="cls-1" d="m105.12,0c-.04.06-.09.13-.13.19-.02-.06-.04-.13-.05-.19.06,0,.12,0,.19,0Z"/><path class="cls-1" d="m67.87,146.75c2.38,1.32,4.69,2.65,7.05,3.9,4.26,2.27,8.72,4.06,13.26,5.67,1.28.45,2.46,1.18,3.7,1.73.33.15.79.27,1.08.15,3.34-1.34,6.72-2.6,9.96-4.13,4.66-2.2,9.22-4.6,13.81-6.94.19-.1.29-.54.26-.8-.03-.24-.28-.47-.45-.69-4.53-5.88-7.2-12.59-8.62-19.82-1.05-5.38-1.28-10.78-.23-16.22,1.95-10.2,9.07-17.12,19.34-18.68,5.51-.83,10.94-.53,16.14,1.58,7.33,2.97,11.53,8.62,13.29,16.17,1.75,7.47.88,14.83-1.22,22.1-1.67,5.79-4.28,11.12-8.18,15.89.41.27.78.53,1.17.76,6.03,3.5,12.24,6.59,18.89,8.78,6.26,2.06,10.34,6.58,13.25,12.3,2.74,5.39,4.04,11.19,4.67,17.17.09.83.18,1.67.18,2.51,0,1.69-1.21,2.93-2.9,3.05-.31.02-.62.01-.93.01-59.01,0-118.03,0-177.04,0-3.65,0-4.65-1.16-4.29-4.79.46-4.69,1.26-9.3,2.9-13.73,1.97-5.3,4.74-10.07,9.35-13.55,1.98-1.5,4.19-2.53,6.55-3.29,6.09-1.97,11.76-4.85,17.31-7.99,2.01-1.14,1.99-1.15.62-3.04-4.69-6.45-7.31-13.71-8.46-21.55-.76-5.16-.76-10.29.57-15.37,1.86-7.09,5.93-12.4,12.78-15.3,4.67-1.97,9.57-2.54,14.62-1.99,3.56.38,6.97,1.24,10.12,2.98,5.67,3.13,9.01,8.04,10.66,14.2,1.62,6.05,1.34,12.15.15,18.22-1.21,6.15-3.4,11.94-6.86,17.21-.75,1.14-1.59,2.22-2.51,3.49Zm32.26,38.71c-.03-.45-.02-.79-.07-1.13-.61-4.36-1.68-8.58-3.49-12.61-2.11-4.7-5.51-8.07-10.24-10.08-4.14-1.75-8.3-3.47-12.47-5.16-.31-.12-.86,0-1.13.22-5.55,4.33-11.56,7.98-17.56,11.63-1.97,1.2-3.68,1.3-5.46-.16-.07-.06-.16-.1-.24-.15-5.48-3.5-10.92-7.05-15.94-11.2-.59-.49-1.04-.5-1.75-.2-3.79,1.63-7.57,3.29-11.43,4.75-3.59,1.36-6.47,3.56-8.67,6.65-2.87,4.03-4.24,8.67-5.2,13.46-.26,1.29-.42,2.6-.64,3.98h94.27Zm79.16.04c-.02-.46,0-.78-.05-1.08-.6-4.3-1.65-8.46-3.41-12.45-2.13-4.84-5.62-8.29-10.47-10.35-4.08-1.73-8.19-3.41-12.27-5.15-.55-.23-.85-.05-1.24.26-5.61,4.42-11.68,8.12-17.8,11.78-1.76,1.05-3.21,1-4.9-.1-5.63-3.67-11.29-7.28-16.47-11.58-.55-.46-.99-.5-1.66-.19-3.05,1.38-6.13,2.71-9.23,4-1.48.62-3.01,1.1-4.63,1.69.35.49.64.84.88,1.23,1.18,1.9,2.48,3.74,3.48,5.73,2.33,4.66,3.53,9.67,4.21,14.81.09.68-.09,1.45,1.14,1.45,23.59-.04,47.18-.03,70.77-.04.52,0,1.04,0,1.67,0Zm-66.51-69.09c-.09,6.95,1.33,13.24,4.15,19.2,2,4.23,4.52,8.1,8.39,10.91,3.39,2.46,7.06,3.32,11.06,1.6,2.03-.87,3.76-2.19,5.27-3.78,4-4.22,6.5-9.29,8.15-14.81,1.9-6.36,2.48-12.82,1.25-19.36-1.27-6.76-5.38-11.04-11.94-12.95-4.45-1.29-9.01-1.43-13.46-.23-5.52,1.49-9.65,4.77-11.55,10.39-1.03,3.04-1.44,6.17-1.32,9.03Zm-40.28-.66c-.13-1.19-.24-3.44-.66-5.62-1.24-6.52-5.15-10.77-11.43-12.76-4.6-1.45-9.36-1.62-14-.36-5.52,1.49-9.62,4.8-11.53,10.42-1.13,3.32-1.36,6.74-1.31,10.21.1,6.71,1.65,13.05,4.67,19.02,1.93,3.81,4.34,7.25,7.83,9.84,4.38,3.26,9.1,3.34,13.58.23,2.07-1.44,3.78-3.24,5.22-5.29,5.2-7.39,7.49-15.67,7.63-25.69Zm44.81,37.53c.31.25.52.46.77.63,4,2.79,8.03,5.55,12,8.39,1.15.82,2,.92,3.26.06,4.26-2.9,8.63-5.65,12.96-8.45.25-.16.46-.37.76-.61-.75-.45-1.44-.77-2.01-1.23-1.45-1.18-2.66-1.09-4.26,0-3.35,2.29-7.14,3.1-11.2,2.4-2.66-.46-5.01-1.6-7.2-3.13-.43-.3-.82-.53-1.35-.21-1.2.71-2.41,1.39-3.73,2.15Zm-49.37.06c-.8-.48-1.45-.79-2.01-1.23-1.49-1.18-2.74-1.17-4.41,0-3.36,2.33-7.21,3.09-11.29,2.34-2.58-.47-4.87-1.62-7.05-3.04-.35-.23-.98-.36-1.32-.2-1.25.6-2.43,1.34-3.69,2.06.14.17.22.31.33.39,4.52,3.12,9.05,6.25,13.59,9.34.23.15.74.12.99-.04,2.76-1.67,5.52-3.35,8.23-5.11,2.19-1.41,4.3-2.93,6.61-4.52Z"/><path class="cls-1" d="m99.61,25.94c7.62,0,15.25,0,22.87,0,.34,0,.69,0,1.03.01,1.5.08,2.69,1.22,2.78,2.64.09,1.48-.96,2.81-2.5,2.97-1.36.14-2.73.14-4.1.14-12.88,0-25.76,0-38.65,0-1.74,0-3.48-.05-5.22-.11-1.77-.06-2.97-1.23-2.96-2.83,0-1.6,1.21-2.82,2.96-2.82,7.93-.03,15.87-.01,23.8,0Z"/><path class="cls-1" d="m107.01,39.97c5.23,0,10.45-.02,15.68.02.77,0,1.63.19,2.3.55,1.03.56,1.49,1.56,1.27,2.77-.22,1.2-1.02,1.91-2.13,2.24-.56.16-1.17.19-1.75.19-10.3,0-20.6,0-30.9-.01-.59,0-1.19-.05-1.75-.18-1.22-.29-2.15-1.45-2.17-2.61-.02-1.18.83-2.39,2.01-2.75.53-.16,1.1-.21,1.65-.21,5.26-.02,10.52,0,15.78,0h0Z"/></svg>