<?xml version="1.0" encoding="UTF-8"?><svg id="Calque_1" xmlns="http://www.w3.org/2000/svg" viewBox="0 0 56.69 60.22"><defs><style>.cls-1{fill:#060606;}.cls-2{fill:#fff;}.cls-3{fill:#865055;}.cls-4{fill:#232422;}</style></defs><path class="cls-4" d="m30.24,49.14h-.12c-8.1-.66-15.22-4.25-21.19-10.67C-3.96,24.56,1.04,5.48,1.26,4.67L2.39.51l.99,4.2c.57,2.43,1.4,4.79,2.46,7.02.59,1.24,2.8,5.6,6.58,9.46,7,7.13,11.81,9.68,18.4,9.77h.13s0-11.25,0-11.25l25.54,20-26.25,20.27v-10.83Z"/><path class="cls-1" d="m2.38,1.02l.88,3.72c.57,2.43,1.4,4.8,2.47,7.04.59,1.25,2.81,5.62,6.61,9.49,7.02,7.16,11.86,9.72,18.49,9.81h.25s0-.25,0-.25v-10.87l25.22,19.74-25.92,20.01v-10.69l-.23-.02c-8.06-.65-15.17-4.22-21.11-10.63C-3.82,24.53,1.16,5.51,1.38,4.71l1-3.69m.02-1.02l-1.26,4.64c-.22.81-5.23,19.96,7.71,33.91,5.99,6.45,13.14,10.05,21.27,10.7v10.97l26.58-20.52-25.87-20.26v11.38c-6.54-.08-11.38-2.67-18.31-9.73-3.76-3.84-5.97-8.18-6.56-9.42-1.06-2.22-1.88-4.58-2.45-6.99L2.39,0h0Z"/><path class="cls-3" d="m31.71,47.75l-.36-.02c-8.29-.38-15.27-3.74-21.34-10.27C-.47,26.17,1.39,11.29,2.33,6.55c.56,1.99,1.29,3.94,2.17,5.81.62,1.3,2.94,5.85,6.86,9.85,7.4,7.54,12.58,10.21,19.79,10.21.29,0,.58,0,.88-.01h.36v-9.69l21.69,16.97-22.39,17.29v-9.23Z"/><path class="cls-2" d="m2.43,8.16c.49,1.49,1.07,2.95,1.74,4.36.62,1.31,2.97,5.91,6.93,9.95,7.48,7.62,12.73,10.32,20.06,10.32.29,0,.59,0,.9-.01l.73-.02v-9.27l7.37,5.77,13.33,10.43-12.62,9.74-8.79,6.79v-8.82l-.72-.03c-8.19-.37-15.09-3.69-21.08-10.15C.87,27.06,1.53,13.99,2.43,8.16m-.12-3.2c-.33,1.22-4.97,19.4,7.43,32.76,8.13,8.76,16.61,10.16,21.59,10.39v9.63c7.79-6.02,15.58-12.03,23.37-18.05-7.56-5.91-15.11-11.83-22.67-17.74v10.09c-.29,0-.59.01-.87.01-7.26,0-12.36-2.79-19.53-10.1-4.1-4.18-6.41-8.95-6.79-9.75-1.33-2.79-2.09-5.32-2.54-7.24h0Z"/></svg>