<?xml version="1.0" encoding="UTF-8"?><svg id="Calque_1" xmlns="http://www.w3.org/2000/svg" viewBox="0 0 185.42 175.67"><defs><style>.cls-1{fill:#984e52;}</style></defs><path class="cls-1" d="m17.73,166.25c-4.92,0-9.84,0-14.75,0-1.56,0-2.98-1.41-2.98-3.01,0-2.17.04-4.33.05-6.5.02-17.37.03-34.74.05-52.11,0-.22,0-.44.01-.65.08-2.87.87-3.77,3.73-3.79,9.4-.05,18.8-.05,28.2,0,2.81.02,3.62.95,3.62,3.74,0,1.86-.1,3.73-.08,5.59,0,.17.53.49.82.49,2.33.04,4.68-.09,7,.04,4.09.23,8.21.33,12.23,1,8.54,1.43,16.51,4.49,23.71,9.37,1.64,1.11,3.25,1.65,5.24,1.59,4.54-.13,9.09-.06,13.63-.05,4.89,0,9.38,1.35,13.29,4.32,2.37,1.79,4.34,3.97,5.97,6.5,1.95,3.04,2.71,6.36,2.98,9.88.11,1.48,1.4.8,2.09.93,3.46.67,6.73,0,10.02-1.32,3.57-1.43,7.35-2.33,11.04-3.47,2.44-.75,4.88-1.51,7.32-2.27,2.99-.93,6-1.82,8.97-2.8,2.27-.75,4.44-1.98,6.75-2.32,2.73-.41,5.54-.72,8.36.39,2.48.97,4.67,2.26,6.36,4.21,1.26,1.44,2.33,3.14,3.09,4.9.63,1.45.79,3.13.95,4.73.15,1.49-.87,2.53-2.32,3.03-1.77.61-3.47,1.42-5.24,2.02-1.9.65-3.86,1.08-5.75,1.74-1.96.67-3.84,1.55-5.8,2.23-2.14.74-4.34,1.3-6.47,2.05-3.71,1.3-7.39,2.72-11.1,4.03-3.03,1.07-6.09,2.02-9.12,3.09-4.42,1.55-8.8,3.22-13.23,4.73-4.74,1.61-9.48,3.22-14.29,4.61-3.43.99-6.94,1.89-10.47,2.32-2.77.34-5.68.19-8.46-.23-2.87-.44-5.65-1.47-8.47-2.25-3.7-1.02-7.4-2.02-11.08-3.1-1.4-.41-2.7-1.15-4.1-1.56-2.61-.76-5.27-1.35-7.89-2.1-4.44-1.27-8.85-2.61-13.27-3.93-3.97-1.18-7.94-2.35-11.91-3.55-.97-.29-1.02.33-1.07.97-.11,1.51-.11,3.02-.3,4.52-.17,1.32-1.19,1.96-2.4,1.98-4.98.06-9.96.03-14.94.03Zm96.32-23.15c.03-.28.05-.41.05-.53-.17-4.74-2.54-8.28-6.16-11.08-3.19-2.47-6.82-3.46-10.86-3.37-5.02.11-10.05.06-15.08-.03-1.08-.02-2.34-.2-3.18-.78-5.85-4.01-11.98-7.47-18.93-9.12-3.82-.91-7.72-1.61-11.62-1.94-3.96-.34-7.96-.12-11.94-.08-.31,0-.87.58-.87.89-.05,8.59-.04,17.18-.05,25.77,0,3.08-.07,6.16-.06,9.24,0,.25.34.65.6.74,2.05.67,4.11,1.28,6.17,1.91,2.82.86,5.62,1.75,8.46,2.56,3.8,1.08,7.64,2.04,11.42,3.17,2.78.83,5.47,1.93,8.24,2.79,3.48,1.09,6.98,2.1,10.5,3.07,4.41,1.22,8.83,2.45,13.29,3.49,3.9.91,7.83.54,11.71-.28,8.01-1.68,15.54-4.82,23.21-7.55,9.93-3.55,19.84-7.19,29.79-10.67,6.66-2.33,13.39-4.48,20.08-6.7.54-.18,1.03-.24.72-1.09-1.77-4.9-7.22-7.78-12.18-6.24-11.14,3.45-22.26,7-33.4,10.46-3.35,1.04-6.6,2.31-10.32,1.8-4.91-.67-9.88-.83-14.83-1.19-4.27-.32-8.54-.63-12.81-.94-5.25-.38-10.5-.75-15.76-1.12-1.47-.1-3.01-1.69-2.95-3.1.05-1.32,1.47-2.53,2.98-2.5,1.61.03,3.22.07,4.83.18,2.55.17,5.09.38,7.63.59,2.79.23,5.57.47,8.36.7,2.21.19,4.41.4,6.62.56,2.09.16,4.17.26,6.34.4ZM5.94,106.58c-.02.51-.06.97-.06,1.43,0,14.35,0,28.7-.01,43.05,0,2.99-.09,5.97-.08,8.96,0,.25.47.72.73.72,7.44.02,14.88-.01,22.32,0,.77,0,.85-.3.85-.93-.03-2.7-.02-5.39-.02-8.09,0-14.66,0-29.32.02-43.98,0-1-.3-1.24-1.27-1.23-6.57.06-13.13.05-19.7.07-.89,0-1.79,0-2.76,0Z"/><path class="cls-1" d="m63.25,33.27c5.07,0,10.14-.02,15.22.02.83,0,1.19-.29,1.44-1.06,2.28-7.13,4.6-14.25,6.92-21.37.91-2.79,1.62-5.68,2.82-8.34,1.29-2.86,4.12-3.29,6.51-1.28,1.42,1.2,4.18,10.58,4.53,11.64,1.9,5.78,3.79,11.56,5.69,17.34.33,1,.64,2,1.02,2.98.07.19.4.41.61.41,3.79-.04,7.57-.14,11.36-.16,6.22-.03,12.45-.02,18.67,0,.73,0,1.48.08,2.2.25,1.86.44,3.07,1.6,3.35,3.53.26,1.8-.84,2.93-2.15,3.89-7.92,5.82-15.8,11.68-23.8,17.39-1.47,1.05-1.71,1.87-1.16,3.56,2.26,7.02,4.32,14.1,6.46,21.16.78,2.59,1.59,5.18,2.3,7.79.41,1.51-.34,3.25-1.59,4.09-1.73,1.16-3.01,1.26-4.57.12-7.47-5.46-14.91-10.97-22.37-16.45-1.07-.78-2.18-1.51-3.3-2.22-.2-.13-.63-.13-.82,0-4.36,3.14-8.7,6.29-13.04,9.47-4.05,2.97-8.07,5.98-12.14,8.93-1.87,1.36-3.53,1.39-5.12.27-.99-.69-1.81-3.29-1.35-4.77,1.31-4.2,2.72-8.38,4.07-12.57.89-2.77,1.7-5.56,2.61-8.33.98-2.99,2.05-5.95,3-8.95.11-.34-.13-1.02-.43-1.24-7.73-5.7-15.5-11.37-23.25-17.04-.75-.55-1.55-1.08-2.16-1.77-1.18-1.33-1.85-2.84-1.04-4.66.78-1.75,2.24-2.6,4.03-2.62,5.16-.08,10.33-.03,15.5-.03Zm5.21,54.33c2.01-1.47,3.77-2.76,5.53-4.05,2.42-1.76,4.84-3.51,7.25-5.28,1.55-1.13,3.01-2.41,4.65-3.4,2.25-1.36,3.82-3.66,6.58-4.35,1.25-.31,2.27-.37,3.27.34,2.48,1.77,4.94,3.58,7.4,5.39,4.33,3.18,8.64,6.38,12.98,9.55.75.55,1.59.98,2.69,1.65-.84-2.57-1.56-4.76-2.26-6.95-2.05-6.36-4.09-12.72-6.13-19.07-.62-1.93-.65-3.85.95-5.28,1.61-1.45,3.41-2.7,5.17-3.99,2.24-1.64,4.52-3.22,6.76-4.85,2.3-1.67,4.57-3.36,6.86-5.04,1.37-1.01,2.75-2.01,4.25-3.11-.63-.12-1.04-.28-1.46-.27-2.67.04-5.35.15-8.02.17-5.48.03-10.96.03-16.43-.01-1.25,0-2.55-.08-3.74-.41-2.3-.64-2.7-2.83-3.34-4.71-.73-2.15-1.23-4.37-1.92-6.53-.63-1.96-1.43-3.86-2.06-5.81-1.29-3.95-2.53-7.92-3.89-12.2-.35.55-3.82,10.62-5.35,15.36-1.14,3.51-2.27,7.03-3.41,10.55-.88,2.72-2.36,3.78-5.21,3.78-8.6,0-17.19,0-25.79.02-.25,0-.5.23-.75.35.15.2.26.46.45.6,1.14.8,2.32,1.53,3.44,2.35,3.1,2.27,6.17,4.57,9.26,6.85,2.96,2.18,5.94,4.34,8.91,6.5,1.41,1.03,2.3,2.54,1.91,4.14-.77,3.16-1.93,6.22-2.94,9.32-.85,2.61-1.72,5.22-2.57,7.83-1.03,3.17-2.06,6.33-3.07,9.51-.09.27.01.6.04,1.08Z"/><path class="cls-1" d="m15.25,59.05c2.49,0,4.98.03,7.47-.03.37,0,.95-.41,1.05-.75.62-2.06,1.05-4.18,1.71-6.22,1.03-3.17,2.13-6.32,3.32-9.44.61-1.6,2.59-2.29,4.25-1.76,1.49.47,2.09,1.69,2.52,2.97,1.56,4.63,3.06,9.28,4.58,13.93.24.73.63,1.03,1.48,1.02,4.7-.06,9.4-.08,14.09-.02,1.02.01,2.15.16,3.03.63,2.54,1.35,2.65,4.75.2,6.57-3.95,2.92-7.96,5.76-11.97,8.6-.69.49-.91.86-.59,1.79,1.37,3.95,2.62,7.95,3.87,11.94.37,1.18.66,2.39.89,3.6.24,1.22-.31,2.19-1.25,2.92-1.12.88-2.42,1.01-3.64.38-1.15-.59-2.19-1.39-3.24-2.14-3.44-2.46-6.86-4.94-10.32-7.38-.21-.15-.76-.08-1,.09-3.81,2.7-7.59,5.45-11.41,8.13-.9.63-1.9,1.15-2.92,1.57-1.4.58-2.45-.26-3.39-1.15-.97-.92-1.18-2.1-.77-3.34,1.41-4.32,5.05-14.08,5.08-14.66.03-.52-.31-1.31-.73-1.56-1.71-1.01-6.11-4.49-6.78-4.97-2.03-1.46-4.11-2.85-6.13-4.33-.95-.7-1.57-1.65-1.25-2.93.48-1.89,1.6-3.15,2.93-3.24,1.48-.1,2.97-.15,4.45-.18,1.49-.03,2.99,0,4.48,0Zm16.76-7.69c-.32.65-.52.95-.62,1.27-.93,2.93-1.8,5.89-2.76,8.81-.83,2.51-2.12,3.39-4.77,3.39-3.34,0-6.69,0-10.32,0,.57.41.88.64,1.2.86,2.66,1.89,5.35,3.75,7.98,5.68,1.39,1.02,1.77,2.26,1.27,3.87-.76,2.46-1.57,4.91-2.35,7.37-.37,1.17-.73,2.34-1.17,3.76.57-.34.92-.53,1.23-.76,2.45-1.76,4.91-3.51,7.35-5.29,2.24-1.63,3.64-1.63,5.85,0,2.67,1.96,5.37,3.89,8.25,5.98-.06-.54-.05-.85-.14-1.12-.96-2.96-1.92-5.92-2.93-8.87-.6-1.77-.28-3.38,1.1-4.63.62-.56,1.32-1.04,1.99-1.54,2.3-1.71,4.61-3.41,7.2-5.33-3.84,0-7.31,0-10.79,0-2.03,0-3.38-.91-4.12-2.82-.42-1.09-.78-2.22-1.14-3.34-.75-2.31-1.48-4.62-2.34-7.31Z"/><path class="cls-1" d="m138.23,59.06c2.49,0,4.98.02,7.47-.03.32,0,.82-.37.92-.67,1.49-4.61,2.91-9.24,4.4-13.85.37-1.13.78-2.3,1.46-3.25.58-.81,3.19-.88,3.95-.12.85.84,1.68,1.87,2.07,2.97,1.61,4.5,3.07,9.05,4.55,13.6.25.77.61,1.05,1.45,1.04,4.51-.05,9.02-.03,13.54-.02.78,0,1.56.03,2.32.16,1.44.26,2.65,1.05,2.96,2.49.35,1.64.19,3.32-1.37,4.45-2.26,1.65-4.53,3.28-6.81,4.92-1.87,1.34-3.77,2.65-5.59,4.05-.32.24-.58.95-.47,1.31,1.6,4.87,3.33,9.71,4.88,14.6.39,1.24.28,2.69-.79,3.7-1.26,1.19-2.95,1.45-4.31.63-.98-.59-1.79-1.46-2.74-2.11-1.53-1.06-3.14-2.01-4.67-3.08-1.88-1.3-3.73-2.63-5.54-4.02-.61-.47-1.01-.47-1.61-.03-3.69,2.7-7.37,5.4-11.11,8.03-1.07.75-2.3,1.7-3.49,1.75-1.04.05-2.3-.84-3.15-1.65-1.57-1.49-.44-3.2.04-4.78.86-2.77,1.79-5.52,2.71-8.27.52-1.55,1-3.12,1.62-4.63.31-.76.18-1.16-.45-1.61-3.65-2.6-7.28-5.22-10.91-7.83-.35-.25-.72-.49-1.07-.75-1.27-.95-2.59-1.99-2.17-3.78.49-2.11,2.17-3.19,4.53-3.2,2.46-.01,4.92,0,7.37,0Zm4.92,27.24c.54-.32.89-.5,1.2-.72,2.45-1.76,4.91-3.51,7.34-5.29,2.23-1.62,3.49-1.67,5.75-.16.67.45,1.32.94,1.97,1.41,2.16,1.56,4.33,3.12,6.81,4.91-1.03-3.18-1.82-6.05-2.89-8.81-1.22-3.16-.88-4.83,1.82-6.83,2.27-1.69,4.55-3.36,6.83-5.04.31-.23.6-.47,1.2-.93-.71,0-1.04,0-1.37,0-3.05,0-6.1,0-9.15,0-2.04,0-3.56-.86-4.29-2.79-.7-1.83-1.27-3.72-1.89-5.58-.54-1.62-1.07-3.25-1.71-5.22-1.06,3.28-2.13,6.19-2.92,9.17-.87,3.3-2.12,4.42-5.55,4.43-2.89,0-5.79,0-8.68,0-.3,0-.61.04-1.22.08.42.28.54.36.66.45,2.72,2.07,5.44,4.15,8.17,6.22,1.44,1.09,1.89,2.48,1.31,4.2-.52,1.53-1.06,3.05-1.55,4.58-.61,1.89-1.18,3.79-1.85,5.93Z"/></svg>